<?xml version="1.0" encoding="utf-8"?>
<!-- Generator: Adobe Illustrator 16.0.0, SVG Export Plug-In . SVG Version: 6.00 Build 0)  -->
<!DOCTYPE svg PUBLIC "-//W3C//DTD SVG 1.1//EN" "http://www.w3.org/Graphics/SVG/1.1/DTD/svg11.dtd">
<svg version="1.1" id="Capa_1" xmlns="http://www.w3.org/2000/svg" xmlns:xlink="http://www.w3.org/1999/xlink" x="0px" y="0px"
	 width="1920px" height="1080px" viewBox="0 0 1920 1080" enable-background="new 0 0 1920 1080" xml:space="preserve">
<radialGradient id="SVGID_1_" cx="960" cy="540" r="778.8453" gradientUnits="userSpaceOnUse">
	<stop  offset="0" style="stop-color:#FFFFFF"/>
	<stop  offset="1" style="stop-color:#EDEDED"/>
</radialGradient>
<rect fill="url(#SVGID_1_)" width="1920" height="1080"/>
<g>
	<path fill="#31B58B" d="M740.536,491.091v-82.031c0-0.006-0.013-0.018-0.013-0.024c0-0.728-0.055-1.446-0.146-2.168
		c-0.018-0.136-0.049-0.267-0.072-0.397c-0.098-0.615-0.219-1.215-0.383-1.819c-0.036-0.112-0.061-0.218-0.09-0.315
		c-0.201-0.667-0.432-1.324-0.729-1.97c-0.061-0.136-0.121-0.261-0.193-0.397c-0.146-0.315-0.285-0.64-0.461-0.949
		c-0.098-0.173-0.207-0.33-0.322-0.503c-0.09-0.173-0.199-0.343-0.314-0.516c-0.346-0.515-0.697-1.024-1.086-1.491
		c-0.048-0.055-0.084-0.104-0.133-0.161c-0.461-0.539-0.945-1.036-1.455-1.506c-0.121-0.106-0.23-0.2-0.357-0.3
		c-0.431-0.385-0.892-0.736-1.377-1.073c-0.121-0.088-0.236-0.166-0.363-0.248c-0.57-0.379-1.164-0.725-1.783-1.025
		c-0.061-0.024-0.097-0.061-0.139-0.082l-109.551-52.614c-6.427,9.367-14.6,17.855-24.136,25.213l90.392,43.413l-159.394,88.385
		c7.3-50.312,2.122-97.012-2.304-123.249c51.571-14.336,96.061-56.437,101.553-110.157c-71.542-5.102-94.145,9.768-112.236,76.859
		c0-134.181-124.341-140.732-124.341-140.732c-26.055,90.453,18.395,147.674,88.824,172.483c0,0,5.327,1.304,12.608,2.316
		c4.441,24.491,11.22,77.021,0.815,130.916l-174.617-96.833l94.399-45.339c-9.27-7.518-17.118-16.167-23.233-25.64l-114.458,54.966
		c-0.036,0.012-0.069,0.045-0.112,0.063c-0.634,0.309-1.249,0.664-1.843,1.049c-0.1,0.07-0.194,0.136-0.291,0.207
		c-0.497,0.352-0.976,0.724-1.437,1.127c-0.103,0.094-0.215,0.182-0.315,0.276c-0.515,0.47-1.012,0.973-1.47,1.519
		c-0.045,0.058-0.082,0.106-0.124,0.161c-0.385,0.467-0.752,0.97-1.088,1.485c-0.112,0.173-0.221,0.354-0.328,0.527
		c-0.106,0.167-0.218,0.321-0.312,0.497c-0.161,0.303-0.303,0.621-0.452,0.925c-0.07,0.143-0.143,0.285-0.212,0.434
		c-0.279,0.64-0.521,1.291-0.712,1.943c-0.03,0.118-0.063,0.236-0.094,0.355c-0.161,0.591-0.285,1.179-0.385,1.77
		c-0.018,0.143-0.042,0.291-0.061,0.439c-0.094,0.709-0.151,1.428-0.151,2.143c0,0.006,0,0.019,0,0.037v82.049
		c0,0.027,0,0.058,0,0.082v190.475c0,6.032,3.274,11.58,8.537,14.508l220.659,122.361c0.012,0.006,0.027,0.012,0.039,0.018
		c0.57,0.322,1.167,0.607,1.786,0.85c0.112,0.049,0.23,0.086,0.343,0.133c0.485,0.17,0.988,0.34,1.498,0.486
		c0.167,0.049,0.333,0.09,0.509,0.127c0.47,0.115,0.955,0.205,1.446,0.285c0.167,0.023,0.328,0.049,0.491,0.072
		c0.64,0.072,1.273,0.121,1.928,0.121c0.661,0,1.304-0.049,1.934-0.121c0.158-0.023,0.322-0.049,0.485-0.072
		c0.497-0.08,0.982-0.17,1.455-0.285c0.169-0.037,0.339-0.078,0.503-0.127c0.516-0.146,1.013-0.316,1.504-0.486
		c0.115-0.047,0.23-0.084,0.346-0.133c0.618-0.242,1.212-0.527,1.788-0.85c0.006-0.006,0.031-0.012,0.042-0.018l220.653-122.361
		c5.275-2.928,8.549-8.476,8.549-14.508V491.228C740.536,491.186,740.536,491.143,740.536,491.091z M299.214,437.223L486.7,541.195
		v44.314L299.214,481.537V437.223z M519.87,541.189l187.483-103.973v44.314L519.87,585.503V541.189z M299.214,519.46L486.7,623.438
		v152.434L299.214,671.905V519.46z M519.87,775.872V623.438L707.353,519.46v152.445L519.87,775.872z"/>
	<path fill="#FFDC8A" d="M487.333,451.677c-16.558-65.992-75.344-50.431-75.344-50.431S411.996,455.582,487.333,451.677z"/>
</g>
<path fill="none" stroke="#FF915E" stroke-width="4" stroke-miterlimit="10" d="M835.218,745.036
	c0-14.851,340.808-26.867,761.982-26.867"/>
<g>
	<path fill="#2E161A" d="M966.137,440.328c-5.437-24.463-31.841-34.947-55.528-34.559c-18.25,0.388-38.442,6.601-49.315,20.58
		c-5.437,6.99-7.378,15.921-6.601,25.24c1.941,27.958,32.618,31.453,61.741,34.171c37.277,4.659,83.485,14.367,93.97,57.857
		c1.165,5.824,1.941,12.426,1.941,17.861c0,52.422-52.032,82.71-100.959,82.71c-41.937,0-92.805-24.852-97.853-73.39l-0.388-7.378
		l39.607-0.776l0.389,5.824v-1.553c2.718,25.239,33.394,38.441,58.634,38.441c29.123,0,60.965-16.309,60.965-44.267
		c0-2.718-0.389-5.825-1.166-9.319c-4.659-20.58-32.617-24.075-59.799-26.793c-42.325-4.271-92.028-13.591-96.3-70.283v0.388
		c-1.553-18.25,3.106-36.501,14.756-51.645c18.25-23.687,50.868-36.112,82.321-36.112c41.937,0,85.427,21.745,92.417,71.448
		L966.137,440.328z"/>
	<path fill="#2E161A" d="M1070.977,602.64h126.199v39.219H1031.37V370.433h165.418v39.219h-125.812v76.497h123.093v39.607h-123.093
		V602.64z"/>
	<path fill="#2E161A" d="M1252.702,602.64h126.199v39.219h-165.807V370.433h165.419v39.219h-125.812v76.497h123.093v39.607h-123.093
		V602.64z"/>
	<path fill="#2E161A" d="M1494.228,370.433c88.922,0,133.576,67.954,133.576,135.907c0,67.953-44.654,135.519-133.576,135.519
		h-97.465V370.433H1494.228z M1494.228,602.64c62.905,0,94.746-48.149,94.746-96.3c0-48.15-31.841-96.688-94.746-96.688h-58.246
		V602.64H1494.228z"/>
</g>
<text transform="matrix(1 0 0 1 821.8057 708.1328)"><tspan x="0" y="0" fill="#2E161A" font-family="'Pacifico'" font-size="60">... a very </tspan><tspan x="253.096" y="0" fill="#FC5151" font-family="'Pacifico'" font-size="60">tiny </tspan><tspan x="363.75" y="0" fill="#2E161A" font-family="'Pacifico'" font-size="60">nicely framework</tspan></text>
</svg>
