<?xml version="1.0" encoding="utf-8"?>
<!-- Generator: Adobe Illustrator 16.0.0, SVG Export Plug-In . SVG Version: 6.00 Build 0)  -->
<!DOCTYPE svg PUBLIC "-//W3C//DTD SVG 1.1//EN" "http://www.w3.org/Graphics/SVG/1.1/DTD/svg11.dtd">
<svg version="1.1" id="Capa_1" xmlns="http://www.w3.org/2000/svg" xmlns:xlink="http://www.w3.org/1999/xlink" x="0px" y="0px"
	 width="1920px" height="1080px" viewBox="0 0 1920 1080" enable-background="new 0 0 1920 1080" xml:space="preserve">
<radialGradient id="SVGID_1_" cx="960" cy="540" r="778.8453" gradientUnits="userSpaceOnUse">
	<stop  offset="0" style="stop-color:#FFFFFF"/>
	<stop  offset="1" style="stop-color:#EDEDED"/>
</radialGradient>
<rect fill="url(#SVGID_1_)" width="1920" height="1080"/>
<g>
	<path fill="#31B58B" d="M740.536,491.091v-82.031c0-0.006-0.013-0.018-0.013-0.024c0-0.728-0.055-1.446-0.146-2.168
		c-0.018-0.136-0.049-0.267-0.072-0.397c-0.098-0.615-0.219-1.215-0.383-1.819c-0.036-0.112-0.061-0.218-0.09-0.315
		c-0.201-0.667-0.432-1.324-0.729-1.97c-0.061-0.136-0.121-0.261-0.193-0.397c-0.146-0.315-0.285-0.64-0.461-0.949
		c-0.098-0.173-0.207-0.33-0.322-0.503c-0.09-0.173-0.199-0.343-0.314-0.516c-0.346-0.515-0.697-1.024-1.086-1.491
		c-0.048-0.055-0.084-0.104-0.133-0.161c-0.461-0.539-0.945-1.036-1.455-1.506c-0.121-0.106-0.23-0.2-0.357-0.3
		c-0.431-0.385-0.892-0.736-1.377-1.073c-0.121-0.088-0.236-0.166-0.363-0.248c-0.57-0.379-1.164-0.725-1.783-1.025
		c-0.061-0.024-0.097-0.061-0.139-0.082l-109.551-52.614c-6.427,9.367-14.6,17.855-24.136,25.213l90.392,43.413l-159.394,88.385
		c7.3-50.312,2.122-97.012-2.304-123.249c51.571-14.336,96.061-56.437,101.553-110.157c-71.542-5.102-94.145,9.768-112.236,76.859
		c0-134.181-124.341-140.732-124.341-140.732c-26.055,90.453,18.395,147.674,88.824,172.483c0,0,5.327,1.304,12.608,2.316
		c4.441,24.491,11.22,77.021,0.815,130.916l-174.617-96.833l94.399-45.339c-9.27-7.518-17.118-16.167-23.233-25.64l-114.458,54.966
		c-0.036,0.012-0.069,0.045-0.112,0.063c-0.634,0.309-1.249,0.664-1.843,1.049c-0.1,0.07-0.194,0.136-0.291,0.207
		c-0.497,0.352-0.976,0.724-1.437,1.127c-0.103,0.094-0.215,0.182-0.315,0.276c-0.515,0.47-1.012,0.973-1.47,1.519
		c-0.045,0.058-0.082,0.106-0.124,0.161c-0.385,0.467-0.752,0.97-1.088,1.485c-0.112,0.173-0.221,0.354-0.328,0.527
		c-0.106,0.167-0.218,0.321-0.312,0.497c-0.161,0.303-0.303,0.621-0.452,0.925c-0.07,0.143-0.143,0.285-0.212,0.434
		c-0.279,0.64-0.521,1.291-0.712,1.943c-0.03,0.118-0.063,0.236-0.094,0.355c-0.161,0.591-0.285,1.179-0.385,1.77
		c-0.018,0.143-0.042,0.291-0.061,0.439c-0.094,0.709-0.151,1.428-0.151,2.143c0,0.006,0,0.019,0,0.037v82.049
		c0,0.027,0,0.058,0,0.082v190.475c0,6.032,3.274,11.58,8.537,14.508l220.659,122.361c0.012,0.006,0.027,0.012,0.039,0.018
		c0.57,0.322,1.167,0.607,1.786,0.85c0.112,0.049,0.23,0.086,0.343,0.133c0.485,0.17,0.988,0.34,1.498,0.486
		c0.167,0.049,0.333,0.09,0.509,0.127c0.47,0.115,0.955,0.205,1.446,0.285c0.167,0.023,0.328,0.049,0.491,0.072
		c0.64,0.072,1.273,0.121,1.928,0.121c0.661,0,1.304-0.049,1.934-0.121c0.158-0.023,0.322-0.049,0.485-0.072
		c0.497-0.08,0.982-0.17,1.455-0.285c0.169-0.037,0.339-0.078,0.503-0.127c0.516-0.146,1.013-0.316,1.504-0.486
		c0.115-0.047,0.23-0.084,0.346-0.133c0.618-0.242,1.212-0.527,1.788-0.85c0.006-0.006,0.031-0.012,0.042-0.018l220.653-122.361
		c5.275-2.928,8.549-8.476,8.549-14.508V491.228C740.536,491.186,740.536,491.143,740.536,491.091z M299.214,437.223L486.7,541.195
		v44.314L299.214,481.537V437.223z M519.87,541.189l187.483-103.973v44.314L519.87,585.503V541.189z M299.214,519.46L486.7,623.438
		v152.434L299.214,671.905V519.46z M519.87,775.872V623.438L707.353,519.46v152.445L519.87,775.872z"/>
	<path fill="#FFDC8A" d="M487.333,451.677c-16.558-65.992-75.344-50.431-75.344-50.431S411.996,455.582,487.333,451.677z"/>
</g>
<path fill="none" stroke="#FF915E" stroke-width="4" stroke-miterlimit="10" d="M835.218,745.036
	c0-14.851,340.808-26.867,761.982-26.867"/>
<g>
	<path fill="#2E161A" d="M966.137,440.328c-5.437-24.463-31.841-34.947-55.528-34.559c-18.25,0.388-38.442,6.601-49.315,20.58
		c-5.437,6.99-7.378,15.921-6.601,25.24c1.941,27.958,32.618,31.453,61.741,34.171c37.277,4.659,83.485,14.367,93.97,57.857
		c1.165,5.824,1.941,12.426,1.941,17.861c0,52.422-52.032,82.71-100.959,82.71c-41.937,0-92.805-24.852-97.853-73.39l-0.388-7.378
		l39.607-0.776l0.389,5.824v-1.553c2.718,25.239,33.394,38.441,58.634,38.441c29.123,0,60.965-16.309,60.965-44.267
		c0-2.718-0.389-5.825-1.166-9.319c-4.659-20.58-32.617-24.075-59.799-26.793c-42.325-4.271-92.028-13.591-96.3-70.283v0.388
		c-1.553-18.25,3.106-36.501,14.756-51.645c18.25-23.687,50.868-36.112,82.321-36.112c41.937,0,85.427,21.745,92.417,71.448
		L966.137,440.328z"/>
	<path fill="#2E161A" d="M1070.977,602.64h126.199v39.219H1031.37V370.433h165.418v39.219h-125.812v76.497h123.093v39.607h-123.093
		V602.64z"/>
	<path fill="#2E161A" d="M1252.702,602.64h126.199v39.219h-165.807V370.433h165.419v39.219h-125.812v76.497h123.093v39.607h-123.093
		V602.64z"/>
	<path fill="#2E161A" d="M1494.228,370.433c88.922,0,133.576,67.954,133.576,135.907c0,67.953-44.654,135.519-133.576,135.519
		h-97.465V370.433H1494.228z M1494.228,602.64c62.905,0,94.746-48.149,94.746-96.3c0-48.15-31.841-96.688-94.746-96.688h-58.246
		V602.64H1494.228z"/>
</g>
<g>
	<path fill="#2E161A" d="M840.917,708.861c0,0.071-0.01,0.25-0.029,0.534c-0.02,0.285-0.083,0.615-0.19,0.989
		c-0.107,0.374-0.274,0.771-0.498,1.189c-0.225,0.419-0.542,0.807-0.952,1.162c-0.41,0.356-0.928,0.65-1.553,0.882
		c-0.625,0.231-1.387,0.348-2.285,0.348c-0.723,0-1.377-0.084-1.963-0.254c-0.586-0.169-1.089-0.428-1.509-0.774
		c-0.42-0.348-0.747-0.793-0.981-1.337c-0.234-0.543-0.352-1.197-0.352-1.964c0-0.642,0.103-1.27,0.308-1.884
		s0.522-1.162,0.952-1.644c0.429-0.481,0.986-0.864,1.67-1.149c0.684-0.285,1.494-0.428,2.432-0.428
		c1.621,0,2.852,0.374,3.691,1.122C840.496,706.403,840.917,707.472,840.917,708.861z"/>
	<path fill="#2E161A" d="M866.17,708.861c0,0.071-0.01,0.25-0.029,0.534c-0.02,0.285-0.083,0.615-0.19,0.989
		c-0.107,0.374-0.274,0.771-0.498,1.189c-0.225,0.419-0.542,0.807-0.952,1.162c-0.41,0.356-0.928,0.65-1.553,0.882
		c-0.625,0.231-1.387,0.348-2.285,0.348c-0.723,0-1.377-0.084-1.963-0.254c-0.586-0.169-1.089-0.428-1.509-0.774
		c-0.42-0.348-0.747-0.793-0.981-1.337c-0.234-0.543-0.352-1.197-0.352-1.964c0-0.642,0.103-1.27,0.308-1.884
		s0.522-1.162,0.952-1.644c0.429-0.481,0.986-0.864,1.67-1.149c0.684-0.285,1.494-0.428,2.432-0.428
		c1.621,0,2.852,0.374,3.691,1.122C865.75,706.403,866.17,707.472,866.17,708.861z"/>
	<path fill="#2E161A" d="M891.424,708.861c0,0.071-0.01,0.25-0.029,0.534c-0.02,0.285-0.083,0.615-0.19,0.989
		c-0.107,0.374-0.274,0.771-0.498,1.189c-0.225,0.419-0.542,0.807-0.952,1.162c-0.41,0.356-0.928,0.65-1.553,0.882
		c-0.625,0.231-1.387,0.348-2.285,0.348c-0.723,0-1.377-0.084-1.963-0.254c-0.586-0.169-1.089-0.428-1.509-0.774
		c-0.42-0.348-0.747-0.793-0.981-1.337c-0.234-0.543-0.352-1.197-0.352-1.964c0-0.642,0.103-1.27,0.308-1.884
		s0.522-1.162,0.952-1.644c0.429-0.481,0.986-0.864,1.67-1.149c0.684-0.285,1.494-0.428,2.432-0.428
		c1.621,0,2.852,0.374,3.691,1.122C891.004,706.403,891.424,707.472,891.424,708.861z"/>
	<path fill="#2E161A" d="M947.466,706.706c-0.449,0.632-1.05,1.372-1.802,2.222s-1.597,1.659-2.534,2.43s-1.943,1.422-3.018,1.955
		s-2.148,0.8-3.223,0.8c-1.297,0-2.379-0.41-3.245-1.232c-0.867-0.821-1.615-2.016-2.245-3.581
		c-0.473,0.541-1.054,1.092-1.743,1.652c-0.689,0.561-1.442,1.068-2.259,1.522s-1.668,0.826-2.555,1.116s-1.772,0.435-2.658,0.435
		c-0.938,0-1.851-0.191-2.739-0.576c-0.889-0.384-1.675-0.936-2.358-1.655c-0.684-0.719-1.23-1.596-1.641-2.631
		c-0.41-1.034-0.615-2.201-0.615-3.502c0-1.459,0.206-2.958,0.619-4.496c0.412-1.537,1.051-3.201,1.916-4.991
		c0.864-1.791,1.792-3.338,2.785-4.643c0.992-1.304,2.077-2.442,3.256-3.415c1.179-0.974,2.421-1.747,3.728-2.321
		s2.638-0.861,3.994-0.861c0.452,0,0.806,0.089,1.061,0.267s0.466,0.38,0.633,0.606c0.167,0.228,0.329,0.449,0.486,0.666
		c0.157,0.218,0.354,0.375,0.59,0.475c0.235,0.099,0.476,0.162,0.722,0.191c0.245,0.03,0.496,0.045,0.751,0.045
		c0.216,0,0.437-0.005,0.663-0.015s0.447-0.016,0.663-0.016c0.295,0,0.57,0.03,0.826,0.089c0.255,0.06,0.481,0.188,0.677,0.386
		s0.348,0.474,0.455,0.829c0.107,0.354,0.161,0.839,0.161,1.45c0,0.934-0.098,1.97-0.293,3.107
		c-0.195,1.138-0.419,2.305-0.671,3.498c-0.252,1.194-0.54,2.556-0.862,4.084s-0.483,2.816-0.483,3.863
		c0,0.896,0.083,1.596,0.249,2.1c0.166,0.505,0.522,0.757,1.069,0.757c0.41,0,0.84-0.102,1.289-0.305s0.903-0.47,1.362-0.799
		s0.918-0.701,1.377-1.118c0.459-0.416,0.894-0.847,1.304-1.293c0.957-1.045,1.924-2.227,2.9-3.543L947.466,706.706z
		 M922.333,704.411c0,0.503,0.034,0.992,0.103,1.466c0.069,0.473,0.191,0.896,0.367,1.269c0.176,0.373,0.411,0.675,0.704,0.906
		s0.665,0.348,1.115,0.348c0.724,0,1.379-0.314,1.966-0.944c0.587-0.629,1.096-1.386,1.526-2.271
		c0.43-0.885,0.777-1.799,1.042-2.743c0.264-0.943,0.436-1.73,0.514-2.359l2.185-9.524c-0.801,0-1.582,0.198-2.344,0.596
		c-0.762,0.396-1.479,0.935-2.153,1.611c-0.674,0.678-1.294,1.452-1.86,2.323c-0.567,0.872-1.124,1.946-1.67,3.225
		c-0.547,1.277-0.933,2.4-1.157,3.368C922.445,702.649,922.333,703.559,922.333,704.411z"/>
	<path fill="#FC5151" d="M985.438,707.403c-1.877,1.094-3.549,2.051-5.016,2.871c-1.468,0.82-2.773,1.504-3.917,2.051
		c-1.145,0.547-2.161,0.957-3.052,1.23c-0.889,0.273-1.696,0.41-2.42,0.41c-1.477,0-2.777-0.449-3.904-1.348
		s-2.069-2.192-2.826-3.882c-0.758-1.689-1.326-3.735-1.705-6.138s-0.568-5.107-0.568-8.115c0-1.172,0.049-2.422,0.146-3.75
		s0.231-2.646,0.407-3.955c-0.591-0.087-1.048-0.168-1.372-0.244c-0.325-0.076-0.669-0.152-1.032-0.229s-0.826-0.157-1.387-0.245
		c-0.56-0.087-1.371-0.195-2.433-0.326c-0.472-0.064-0.835-0.189-1.091-0.374c-0.256-0.186-0.442-0.402-0.561-0.652
		c-0.118-0.25-0.187-0.511-0.207-0.783c-0.019-0.271-0.029-0.505-0.029-0.701c0-0.308,0.192-0.543,0.574-0.705
		c0.383-0.162,0.874-0.283,1.473-0.364c0.6-0.081,1.256-0.127,1.973-0.137s1.404-0.005,2.062,0.015
		c0.657,0.02,1.246,0.034,1.767,0.044s0.878-0.005,1.075-0.044c0.526-2.629,1.193-5.176,2.003-7.639
		c0.81-2.464,1.716-4.655,2.72-6.573s2.102-3.457,3.291-4.616c1.188-1.159,2.437-1.738,3.742-1.738c0.842,0,1.607,0.234,2.302,0.703
		c0.694,0.468,1.285,1.092,1.774,1.873c0.488,0.78,0.864,1.692,1.128,2.736s0.396,2.132,0.396,3.264c0,0.937-0.137,1.925-0.41,2.966
		s-0.645,2.103-1.113,3.182s-1.021,2.173-1.656,3.281s-1.305,2.207-2.008,3.296c0.177-0.064,0.471-0.077,0.881-0.038
		c0.41,0.04,0.884,0.067,1.422,0.083c0.537,0.016,1.117,0.031,1.742,0.047s1.23,0.033,1.816,0.053s1.133,0.039,1.641,0.059
		s0.928,0.039,1.26,0.059c0.391,0.021,0.674,0.239,0.85,0.652s0.264,0.935,0.264,1.565c0,0.729-0.195,1.323-0.586,1.782
		s-0.822,0.688-1.291,0.688h-11.262c-0.569,0.781-1.144,1.548-1.723,2.3c-0.578,0.752-1.113,1.431-1.604,2.036
		c-0.078,1.211-0.146,2.402-0.205,3.574c-0.02,0.508-0.039,1.03-0.059,1.567s-0.039,1.069-0.059,1.597s-0.033,1.035-0.043,1.523
		c-0.011,0.488-0.016,0.938-0.016,1.348c0,1.055,0.099,1.943,0.295,2.666c0.195,0.723,0.48,1.313,0.853,1.772
		s0.828,0.791,1.368,0.996c0.539,0.205,1.142,0.308,1.809,0.308c0.41,0,0.924-0.098,1.539-0.293s1.29-0.464,2.023-0.806
		s1.506-0.747,2.316-1.216c0.812-0.469,1.613-0.981,2.405-1.538s1.55-1.143,2.272-1.758c0.724-0.615,1.379-1.245,1.965-1.89V707.403
		z M976.062,670.304c0-0.214-0.015-0.451-0.044-0.715c-0.029-0.263-0.093-0.51-0.19-0.743s-0.25-0.429-0.457-0.584
		c-0.205-0.155-0.494-0.233-0.867-0.233c-0.51,0-1.024,0.446-1.544,1.338s-1.02,2.031-1.501,3.417
		c-0.48,1.387-0.931,2.914-1.352,4.582c-0.422,1.667-0.809,3.286-1.162,4.856c0.294,0.029,0.588,0.055,0.882,0.076
		c0.294,0.022,0.599,0.048,0.912,0.076c0.589-0.984,1.201-2.05,1.839-3.198c0.637-1.148,1.21-2.277,1.72-3.387
		s0.932-2.146,1.265-3.111C975.896,671.712,976.062,670.921,976.062,670.304z"/>
	<path fill="#FC5151" d="M1000.994,707.726c-0.703,0.645-1.577,1.333-2.621,2.065c-1.045,0.732-2.174,1.406-3.385,2.021
		s-2.445,1.128-3.705,1.538s-2.457,0.615-3.59,0.615c-1.016,0-1.87-0.142-2.562-0.425c-0.693-0.283-1.256-0.679-1.686-1.187
		s-0.736-1.128-0.922-1.86c-0.187-0.732-0.279-1.538-0.279-2.417c0-1.23,0.137-2.666,0.41-4.307c0.563-3.394,0.926-5.3,1.086-5.719
		c0.266-0.834,0.799-2.682,1.598-5.544c0.74-2.333,1.199-3.852,1.373-4.556c0.096-0.493,0.364-0.938,0.807-1.333
		c0.402-0.354,0.857-0.646,1.367-0.874c0.508-0.227,1.035-0.395,1.582-0.503s1.041-0.163,1.482-0.163
		c0.807,0,1.354,0.151,1.641,0.454c0.288,0.303,0.432,0.708,0.432,1.216c0,0.43-0.1,1.037-0.301,1.821
		c-0.2,0.785-0.429,1.68-0.686,2.683c-0.256,1.004-0.637,2.294-1.14,3.871c-0.503,1.578-0.847,2.923-1.032,4.035
		c-0.184,1.113-0.416,2.219-0.697,3.317s-0.422,2.097-0.422,2.994c0,0.879,0.098,1.577,0.293,2.094
		c0.195,0.518,0.596,0.776,1.201,0.776c0.703,0,1.484-0.244,2.344-0.732s1.729-1.079,2.607-1.772s1.738-1.411,2.578-2.153
		s1.582-1.377,2.227-1.904V707.726z M987.898,676.98c0-0.453,0.098-0.966,0.293-1.537c0.195-0.572,0.514-1.109,0.953-1.612
		c0.439-0.502,1.025-0.926,1.758-1.271c0.732-0.345,1.645-0.518,2.738-0.518c0.684,0,1.328,0.079,1.934,0.236
		c0.605,0.158,1.133,0.4,1.582,0.725c0.449,0.325,0.807,0.754,1.07,1.287c0.264,0.532,0.395,1.163,0.395,1.892
		c0,0.671-0.107,1.321-0.322,1.952s-0.557,1.193-1.025,1.686c-0.469,0.493-1.059,0.893-1.771,1.198
		c-0.714,0.306-1.568,0.458-2.564,0.458c-1.719,0-2.988-0.409-3.809-1.228C988.309,679.431,987.898,678.341,987.898,676.98z"/>
	<path fill="#FC5151" d="M998.943,707.843c0-1.289,0.078-2.778,0.234-4.468s0.352-3.545,0.586-5.566s0.498-3.843,0.791-5.464
		s0.576-3.008,0.85-4.16c0.215-0.898,0.631-1.65,1.246-2.256s1.449-0.908,2.504-0.908s1.787,0.322,2.197,0.967
		s0.615,1.504,0.615,2.578c0,0.293-0.029,0.688-0.088,1.187s-0.131,1.045-0.219,1.641s-0.182,1.211-0.279,1.846
		s-0.189,1.357-0.277,2.168s-0.162,1.416-0.221,1.816s-0.088,0.669-0.088,0.806h0.586c0.117-0.215,0.303-0.562,0.557-1.04
		s0.547-1.167,0.879-2.065s0.689-1.694,1.07-2.388s0.736-1.357,1.068-1.992s0.635-1.196,0.908-1.685s0.479-0.85,0.615-1.084
		c0.625-1.055,1.338-1.777,2.139-2.168s1.689-0.586,2.666-0.586s1.754,0.41,2.33,1.23c0.575,0.82,0.863,1.953,0.863,3.398
		c0,0.215-0.043,0.576-0.131,1.084s-0.201,1.113-0.338,1.816s-0.288,1.611-0.453,2.725c-0.166,1.113-0.318,2.109-0.455,2.988
		s-0.248,1.748-0.336,2.607s-0.133,1.65-0.133,2.373c0,1.211,0.151,2.207,0.455,2.988c0.303,0.781,0.775,1.172,1.42,1.172
		c0.234,0,0.566-0.088,0.996-0.264c0.645-0.234,1.055-0.439,1.23-0.615c0.859-0.664,1.309-0.986,1.348-0.967
		c0.059,0.02,0.713-0.371,1.963-1.172c1.562-0.996,3.428-2.217,5.596-3.662l-0.029,6.562l-1.465,1.113
		c-0.117,0.098-1.035,0.605-2.754,1.523c-2.48,1.328-4.033,2.129-4.658,2.402c-1.523,0.684-2.471,1.074-2.842,1.172
		c-0.977,0.312-2.002,0.469-3.076,0.469s-1.977-0.776-2.709-2.329s-1.1-3.823-1.1-6.812c0-1.172,0.078-2.437,0.234-3.794
		s0.352-2.817,0.586-4.38h-0.469l-7.676,15.234c-0.41,0.82-0.85,1.367-1.318,1.641c-0.488,0.293-1.055,0.439-1.699,0.439
		c-0.801,0-1.445-0.171-1.934-0.513s-0.863-0.801-1.127-1.377s-0.439-1.23-0.527-1.963S998.943,708.624,998.943,707.843z"/>
	<path fill="#FC5151" d="M1038.816,714.464l0.645-3.542c-1.055,0.928-2.152,1.677-3.295,2.247s-2.252,0.855-3.326,0.855
		c-0.938,0-1.85-0.19-2.738-0.571c-0.89-0.381-1.676-0.928-2.359-1.641s-1.23-1.582-1.641-2.607s-0.615-2.183-0.615-3.472
		c0-1.699,0.117-3.257,0.352-4.673c0.234-1.415,0.523-3.163,0.866-5.243s0.749-3.722,1.218-4.923s1.006-2.417,1.611-3.647
		c0.447-0.879,1.092-1.548,1.932-2.007s1.66-0.688,2.461-0.688c0.683,0,1.269,0.171,1.756,0.513
		c0.488,0.343,0.732,0.875,0.732,1.598c0,0.216-0.023,0.45-0.071,0.704s-0.13,0.527-0.245,0.82
		c-0.345,0.898-0.636,1.968-0.873,3.206c-0.236,1.238-0.553,2.89-0.949,4.953c-0.395,2.063-0.709,3.7-0.941,4.91
		c-0.231,1.209-0.348,2.288-0.348,3.235c0,0.493,0.034,0.972,0.104,1.436c0.068,0.465,0.189,0.879,0.365,1.244
		s0.41,0.661,0.703,0.888c0.293,0.228,0.664,0.341,1.113,0.341c0.723,0,1.377-0.314,1.963-0.944
		c0.586-0.629,1.094-1.386,1.523-2.271s0.777-1.8,1.041-2.744c0.264-0.943,0.434-1.73,0.512-2.36l2.348-10.957
		c0.137-0.645,0.41-1.23,0.822-1.758c0.391-0.508,0.852-0.942,1.379-1.304s1.076-0.63,1.643-0.806
		c0.568-0.176,1.105-0.264,1.615-0.264c0.605,0,1.115,0.132,1.525,0.396c0.41,0.265,0.615,0.681,0.615,1.247
		c0,0.176-0.029,0.382-0.088,0.616c-0.09,0.52-0.213,1.218-0.365,2.094c-0.154,0.877-0.328,1.873-0.523,2.99
		c-0.195,1.116-0.467,2.684-0.818,4.698c-0.35,2.016-0.635,3.637-0.854,4.863c-0.494,2.9-1,6.015-1.514,9.346
		c0.594-0.332,1.234-0.741,1.92-1.229s1.449-1.142,2.289-1.961s1.777-1.849,2.812-3.088s2.197-2.786,3.486-4.641l1.406,6.521
		c-0.352,0.602-0.801,1.213-1.348,1.833c-0.586,0.66-1.211,1.3-1.875,1.921c-0.977,0.893-1.68,1.494-2.109,1.804
		c-0.137,0.098-0.85,0.658-2.139,1.683c-0.391,0.332-1.684,1.23-3.879,2.694c-0.535,0.352-0.9,0.991-1.098,1.919
		c-0.197,0.927-0.426,2.65-0.684,5.169c-0.111,0.719-0.182,1.271-0.209,1.66c-0.119,0.933-0.232,1.821-0.338,2.667
		c-0.107,0.845-0.297,1.81-0.57,2.894s-0.594,2.081-0.965,2.99c-0.371,0.908-0.857,1.812-1.463,2.711
		c-0.604,0.898-1.271,1.665-2.002,2.301c-0.73,0.634-1.613,1.146-2.646,1.538c-1.033,0.391-2.164,0.586-3.392,0.586
		c-0.994,0-1.915-0.112-2.763-0.337c-0.848-0.224-1.623-0.57-2.324-1.038c-0.703-0.469-1.277-1.107-1.726-1.917
		s-0.712-1.762-0.79-2.854c-0.156-2.068,0.41-4.254,1.699-6.556c0.723-1.288,1.23-2.181,1.523-2.678
		c0.293-0.498,0.752-1.215,1.377-2.151c0.625-0.917,1.279-1.746,1.963-2.487c1.367-1.542,2.495-2.78,3.385-3.717
		C1036.527,716.541,1037.586,715.536,1038.816,714.464z M1038.92,721.526c-1.369,0.977-2.721,2.539-4.051,4.687
		c-1.33,2.148-2.387,4.335-3.17,6.562c-0.646,1.875-0.324,2.812,0.965,2.812c0.469,0,0.889-0.059,1.26-0.176s0.713-0.327,1.025-0.63
		s0.586-0.635,0.82-0.996s0.484-0.869,0.748-1.523s0.498-1.299,0.703-1.934s0.463-1.479,0.775-2.534
		c0.176-0.566,0.307-1.197,0.393-1.893c0.084-0.695,0.186-1.531,0.305-2.506C1038.812,722.419,1038.887,721.796,1038.92,721.526z"/>
	<path fill="#2E161A" d="M1071.752,704.474c-0.062-1.465-0.123-2.739-0.182-3.823s-0.112-2.065-0.161-2.944
		s-0.083-1.689-0.103-2.432s-0.029-1.504-0.029-2.285c0-2.598,0.099-4.458,0.296-5.581c0.196-1.123,0.627-1.733,1.291-1.831
		l3.734-0.557l0.279-0.059c0.083,0,0.187,0,0.312,0c0.5,0,0.886,0.195,1.157,0.586c0.272,0.391,0.416,0.84,0.431,1.348
		l-0.557,19.424l0.2-0.029l7.998-19.541c0.059-0.273,0.186-0.537,0.381-0.791s0.449-0.474,0.762-0.659s0.659-0.337,1.04-0.454
		s0.786-0.176,1.216-0.176c1.133,0,2.041,0.229,2.725,0.688s1.025,1.05,1.025,1.772c0,0.547-0.078,1.064-0.234,1.553
		c-0.156,0.605-0.352,1.143-0.586,1.611c-0.508,0.996-0.82,1.631-0.938,1.904c-0.879,2.109-1.377,3.33-1.494,3.662
		c-0.117,0.352-0.234,0.713-0.352,1.084c-0.098,0.332-0.181,0.708-0.249,1.128s-0.103,0.854-0.103,1.304
		c0,0.469,0.059,0.928,0.176,1.377s0.322,0.854,0.615,1.216s0.693,0.649,1.201,0.864s1.162,0.322,1.963,0.322
		c0.586,0,1.265-0.151,2.036-0.454s1.499-0.649,2.183-1.04c0.801-0.449,1.621-0.957,2.461-1.523v6.885
		c-1.289,0.82-2.622,1.475-3.999,1.963s-2.69,0.732-3.94,0.732c-1.055,0-1.997-0.161-2.827-0.483s-1.533-0.757-2.109-1.304
		s-1.025-1.162-1.348-1.846s-0.493-1.396-0.513-2.139c-0.566,1.172-1.211,2.373-1.934,3.604s-1.47,2.344-2.241,3.34
		s-1.535,1.812-2.292,2.446c-0.756,0.635-1.447,0.952-2.073,0.952c-1.209,0-2.146-0.288-2.812-0.864
		c-0.667-0.576-1.161-1.304-1.484-2.183s-0.531-1.836-0.625-2.871s-0.172-2.021-0.234-2.959L1071.752,704.474z"/>
	<path fill="#2E161A" d="M1106.829,713.966c-1.823,0-3.42-0.338-4.787-1.014c-1.368-0.676-2.508-1.586-3.42-2.729
		c-0.911-1.143-1.596-2.465-2.052-3.966s-0.684-3.077-0.684-4.728c0-1.079,0.204-2.365,0.612-3.859
		c0.407-1.494,0.83-2.819,1.268-3.977c0.437-1.156,0.985-2.26,1.646-3.311c0.661-1.05,1.434-1.976,2.317-2.775
		c0.884-0.801,1.874-1.437,2.972-1.908c1.098-0.473,2.317-0.709,3.657-0.709c1.095,0,2.111,0.176,3.05,0.527
		c0.938,0.351,1.756,0.843,2.449,1.478c0.694,0.634,1.237,1.399,1.628,2.297s0.587,1.901,0.587,3.014
		c0,1.184-0.396,2.512-1.189,3.981c-0.793,1.471-1.718,2.731-2.774,3.781c-1.057,1.051-2.314,1.986-3.772,2.808
		s-3.038,1.461-4.741,1.919c0.294,0.517,0.583,0.946,0.867,1.29s0.573,0.611,0.867,0.802c0.294,0.191,0.604,0.325,0.927,0.401
		s0.671,0.114,1.044,0.114c1.172,0,2.407-0.229,3.706-0.688c1.299-0.458,2.563-1.031,3.794-1.719s2.393-1.438,3.486-2.249
		s2.021-1.58,2.783-2.306l3.779,3.839c-1.719,1.83-3.545,3.449-5.479,4.857c-0.84,0.604-1.743,1.197-2.71,1.78
		s-1.982,1.102-3.047,1.554s-2.168,0.814-3.311,1.086S1108.002,713.966,1106.829,713.966z M1102.918,700.013
		c0.706,0,1.476-0.177,2.309-0.53s1.607-0.807,2.323-1.36c0.715-0.555,1.416-1.299,2.103-2.234c0.686-0.936,1.029-1.71,1.029-2.32
		c0-0.859-0.162-1.566-0.485-2.12s-0.721-0.831-1.191-0.831c-0.843,0-1.563,0.153-2.161,0.459s-1.098,0.701-1.5,1.188
		c-0.401,0.487-0.726,1.04-0.97,1.661c-0.246,0.621-0.53,1.39-0.854,2.307c-0.323,0.916-0.505,1.671-0.544,2.263
		S1102.918,699.592,1102.918,700.013z"/>
	<path fill="#2E161A" d="M1119.09,707.843c0-0.859,0.049-1.86,0.146-3.003s0.229-2.349,0.396-3.618s0.361-2.563,0.586-3.882
		s0.513-2.725,0.864-4.219s0.654-2.739,0.908-3.735s0.508-1.816,0.762-2.461c0.156-0.43,0.312-0.771,0.469-1.025
		s0.337-0.454,0.542-0.601s0.459-0.244,0.762-0.293s0.679-0.073,1.128-0.073c0.508,0,0.903,0.024,1.187,0.073
		s0.493,0.166,0.63,0.352s0.22,0.454,0.249,0.806s0.044,0.83,0.044,1.436c0,0.723-0.049,1.748-0.146,3.076s-0.127,2.49-0.088,3.486
		h0.322c0.391-0.781,0.879-1.807,1.465-3.076s1.201-2.324,1.846-3.164s1.377-1.548,2.197-2.124s1.768-0.864,2.842-0.864
		c0.371,0,0.732,0.063,1.084,0.19s0.659,0.308,0.923,0.542s0.474,0.522,0.63,0.864s0.234,0.728,0.234,1.157
		c0,0.332-0.049,0.796-0.146,1.392s-0.254,1.372-0.469,2.329s-0.371,1.743-0.469,2.358s-0.146,1.128-0.146,1.538
		c0,0.703,0.068,1.289,0.205,1.758s0.317,0.845,0.542,1.128s0.479,0.483,0.762,0.601s0.581,0.176,0.894,0.176
		c0.879,0,1.787-0.195,2.725-0.586s1.797-0.83,2.578-1.318c0.918-0.566,1.816-1.211,2.695-1.934l-0.439,6.855
		c-0.508,0.332-1.084,0.703-1.729,1.113s-1.333,0.796-2.065,1.157s-1.494,0.664-2.285,0.908s-1.597,0.366-2.417,0.366
		c-1.465,0-2.646-0.298-3.545-0.894s-1.611-1.377-2.139-2.344s-0.918-2.051-1.172-3.252s-0.459-2.417-0.615-3.647h-0.469
		l-5.244,14.619c-0.273,0.762-0.532,1.392-0.776,1.89s-0.493,0.903-0.747,1.216s-0.527,0.532-0.82,0.659s-0.615,0.19-0.967,0.19
		c-0.801,0-1.445-0.171-1.934-0.513s-0.864-0.801-1.128-1.377s-0.439-1.23-0.527-1.963S1119.09,708.624,1119.09,707.843z"/>
	<path fill="#2E161A" d="M1155.799,714.464l0.645-3.542c-1.055,0.928-2.153,1.677-3.296,2.247s-2.251,0.855-3.325,0.855
		c-0.938,0-1.851-0.19-2.739-0.571s-1.675-0.928-2.358-1.641s-1.23-1.582-1.641-2.607s-0.615-2.183-0.615-3.472
		c0-1.699,0.117-3.257,0.352-4.673c0.233-1.415,0.522-3.163,0.865-5.243c0.344-2.08,0.749-3.722,1.218-4.923
		s1.006-2.417,1.611-3.647c0.448-0.879,1.093-1.548,1.933-2.007s1.659-0.688,2.46-0.688c0.683,0,1.269,0.171,1.757,0.513
		c0.488,0.343,0.732,0.875,0.732,1.598c0,0.216-0.024,0.45-0.072,0.704s-0.129,0.527-0.244,0.82
		c-0.345,0.898-0.636,1.968-0.873,3.206s-0.554,2.89-0.949,4.953s-0.709,3.7-0.941,4.91c-0.231,1.209-0.348,2.288-0.348,3.235
		c0,0.493,0.034,0.972,0.103,1.436c0.068,0.465,0.19,0.879,0.366,1.244s0.41,0.661,0.703,0.888c0.293,0.228,0.664,0.341,1.113,0.341
		c0.723,0,1.377-0.314,1.963-0.944c0.586-0.629,1.094-1.386,1.523-2.271s0.776-1.8,1.04-2.744c0.264-0.943,0.435-1.73,0.513-2.36
		l2.348-10.957c0.137-0.645,0.41-1.23,0.821-1.758c0.391-0.508,0.852-0.942,1.38-1.304c0.527-0.361,1.075-0.63,1.643-0.806
		s1.105-0.264,1.614-0.264c0.606,0,1.115,0.132,1.525,0.396c0.411,0.265,0.616,0.681,0.616,1.247c0,0.176-0.029,0.382-0.088,0.616
		c-0.091,0.52-0.213,1.218-0.366,2.094c-0.153,0.877-0.328,1.873-0.522,2.99c-0.195,1.116-0.468,2.684-0.818,4.698
		c-0.351,2.016-0.635,3.637-0.854,4.863c-0.495,2.9-1,6.015-1.514,9.346c0.594-0.332,1.233-0.741,1.92-1.229
		c0.686-0.488,1.449-1.142,2.289-1.961c0.839-0.819,1.776-1.849,2.812-3.088c1.035-1.239,2.197-2.786,3.486-4.641l1.406,6.521
		c-0.352,0.602-0.802,1.213-1.348,1.833c-0.586,0.66-1.212,1.3-1.875,1.921c-0.978,0.893-1.681,1.494-2.109,1.804
		c-0.137,0.098-0.85,0.658-2.139,1.683c-0.392,0.332-1.684,1.23-3.879,2.694c-0.535,0.352-0.9,0.991-1.099,1.919
		c-0.197,0.927-0.425,2.65-0.683,5.169c-0.112,0.719-0.182,1.271-0.21,1.66c-0.119,0.933-0.231,1.821-0.338,2.667
		c-0.107,0.845-0.297,1.81-0.57,2.894c-0.272,1.084-0.594,2.081-0.965,2.99c-0.37,0.908-0.857,1.812-1.462,2.711
		c-0.604,0.898-1.272,1.665-2.003,2.301c-0.73,0.634-1.613,1.146-2.646,1.538c-1.033,0.391-2.164,0.586-3.392,0.586
		c-0.995,0-1.916-0.112-2.764-0.337c-0.848-0.224-1.623-0.57-2.324-1.038c-0.702-0.469-1.276-1.107-1.725-1.917
		c-0.449-0.81-0.712-1.762-0.79-2.854c-0.156-2.068,0.41-4.254,1.699-6.556c0.723-1.288,1.23-2.181,1.523-2.678
		c0.293-0.498,0.752-1.215,1.377-2.151c0.625-0.917,1.279-1.746,1.963-2.487c1.367-1.542,2.495-2.78,3.384-3.717
		S1154.568,715.536,1155.799,714.464z M1155.902,721.526c-1.37,0.977-2.721,2.539-4.051,4.687c-1.331,2.148-2.388,4.335-3.17,6.562
		c-0.646,1.875-0.324,2.812,0.965,2.812c0.469,0,0.889-0.059,1.26-0.176s0.713-0.327,1.025-0.63s0.586-0.635,0.82-0.996
		s0.483-0.869,0.747-1.523s0.498-1.299,0.703-1.934s0.464-1.479,0.776-2.534c0.176-0.566,0.307-1.197,0.392-1.893
		s0.187-1.531,0.305-2.506C1155.793,722.419,1155.869,721.796,1155.902,721.526z"/>
	<path fill="#2E161A" d="M1188.729,707.843c0-1.289,0.078-2.778,0.234-4.468s0.352-3.545,0.586-5.566s0.498-3.843,0.791-5.464
		s0.576-3.008,0.85-4.16c0.215-0.898,0.63-1.65,1.245-2.256s1.45-0.908,2.505-0.908s1.787,0.322,2.197,0.967
		s0.615,1.504,0.615,2.578c0,0.293-0.029,0.688-0.088,1.187s-0.132,1.045-0.22,1.641s-0.181,1.211-0.278,1.846
		s-0.19,1.357-0.278,2.168s-0.161,1.416-0.22,1.816s-0.088,0.669-0.088,0.806h0.586c0.117-0.215,0.303-0.562,0.557-1.04
		s0.547-1.167,0.879-2.065s0.688-1.694,1.069-2.388s0.737-1.357,1.069-1.992s0.635-1.196,0.908-1.685s0.479-0.85,0.615-1.084
		c0.625-1.055,1.338-1.777,2.139-2.168s1.689-0.586,2.666-0.586s1.753,0.41,2.329,1.23s0.864,1.953,0.864,3.398
		c0,0.215-0.044,0.576-0.132,1.084s-0.2,1.113-0.337,1.816s-0.288,1.611-0.454,2.725s-0.317,2.109-0.454,2.988
		s-0.249,1.748-0.337,2.607s-0.132,1.65-0.132,2.373c0,1.211,0.151,2.207,0.454,2.988s0.776,1.172,1.421,1.172
		c0.234,0,0.566-0.088,0.996-0.264c0.645-0.234,1.055-0.439,1.23-0.615c0.859-0.664,1.309-0.986,1.348-0.967
		c0.059,0.02,0.713-0.371,1.963-1.172c1.562-0.996,3.428-2.217,5.596-3.662l-0.029,6.562l-1.465,1.113
		c-0.117,0.098-1.035,0.605-2.754,1.523c-2.48,1.328-4.033,2.129-4.658,2.402c-1.523,0.684-2.471,1.074-2.842,1.172
		c-0.977,0.312-2.002,0.469-3.076,0.469s-1.978-0.776-2.71-2.329s-1.099-3.823-1.099-6.812c0-1.172,0.078-2.437,0.234-3.794
		s0.352-2.817,0.586-4.38h-0.469l-7.676,15.234c-0.41,0.82-0.85,1.367-1.318,1.641c-0.488,0.293-1.055,0.439-1.699,0.439
		c-0.801,0-1.445-0.171-1.934-0.513s-0.864-0.801-1.128-1.377s-0.439-1.23-0.527-1.963S1188.729,708.624,1188.729,707.843z"/>
	<path fill="#2E161A" d="M1234.959,707.726c-0.703,0.645-1.577,1.333-2.622,2.065s-2.173,1.406-3.384,2.021
		s-2.446,1.128-3.706,1.538s-2.456,0.615-3.589,0.615c-1.016,0-1.87-0.142-2.563-0.425s-1.255-0.679-1.685-1.187
		s-0.737-1.128-0.923-1.86s-0.278-1.538-0.278-2.417c0-1.23,0.137-2.666,0.41-4.307c0.563-3.394,0.925-5.3,1.086-5.719
		c0.266-0.834,0.798-2.682,1.597-5.544c0.741-2.333,1.199-3.852,1.374-4.556c0.096-0.493,0.364-0.938,0.806-1.333
		c0.403-0.354,0.858-0.646,1.367-0.874c0.509-0.227,1.036-0.395,1.583-0.503s1.041-0.163,1.482-0.163
		c0.806,0,1.353,0.151,1.641,0.454c0.287,0.303,0.432,0.708,0.432,1.216c0,0.43-0.101,1.037-0.301,1.821
		c-0.2,0.785-0.43,1.68-0.686,2.683c-0.257,1.004-0.637,2.294-1.14,3.871c-0.504,1.578-0.848,2.923-1.032,4.035
		c-0.185,1.113-0.417,2.219-0.698,3.317s-0.421,2.097-0.421,2.994c0,0.879,0.098,1.577,0.293,2.094
		c0.195,0.518,0.596,0.776,1.201,0.776c0.703,0,1.484-0.244,2.344-0.732s1.729-1.079,2.607-1.772s1.738-1.411,2.578-2.153
		s1.582-1.377,2.227-1.904V707.726z M1221.863,676.98c0-0.453,0.098-0.966,0.293-1.537c0.195-0.572,0.513-1.109,0.952-1.612
		c0.439-0.502,1.025-0.926,1.758-1.271c0.732-0.345,1.646-0.518,2.739-0.518c0.684,0,1.328,0.079,1.934,0.236
		c0.605,0.158,1.133,0.4,1.582,0.725c0.449,0.325,0.806,0.754,1.069,1.287c0.264,0.532,0.396,1.163,0.396,1.892
		c0,0.671-0.107,1.321-0.322,1.952s-0.557,1.193-1.025,1.686c-0.469,0.493-1.06,0.893-1.772,1.198s-1.567,0.458-2.563,0.458
		c-1.719,0-2.988-0.409-3.809-1.228C1222.273,679.431,1221.863,678.341,1221.863,676.98z"/>
	<path fill="#2E161A" d="M1242.033,713.966c-1.809,0-3.396-0.332-4.763-0.996s-2.512-1.553-3.436-2.666
		c-0.925-1.113-1.622-2.402-2.094-3.867c-0.473-1.465-0.708-2.988-0.708-4.57c0-1.133,0.196-2.49,0.589-4.072
		s0.819-2.964,1.281-4.146c0.461-1.182,1.03-2.31,1.708-3.384s1.462-2.017,2.355-2.827s1.891-1.455,2.99-1.934
		s2.307-0.718,3.622-0.718c1.185,0,2.28,0.171,3.289,0.513c1.008,0.342,1.87,0.815,2.587,1.421s1.277,1.323,1.684,2.153
		c0.404,0.83,0.607,1.724,0.607,2.681c0,0.664-0.096,1.318-0.285,1.963c-0.191,0.645-0.561,1.401-1.11,2.271
		c-0.549,0.869-1.083,1.46-1.601,1.772s-1.104,0.469-1.759,0.469c-0.988,0-1.626-0.244-1.914-0.732
		c-0.474-0.762-0.623-1.436-0.448-2.021c0.059-0.312,0.233-1.035,0.525-2.168c0.039-0.156,0.049-0.508,0.029-1.055
		c0-0.469-0.049-0.859-0.146-1.172c-0.097-0.312-0.311-0.469-0.641-0.469c-0.798,0-1.479,0.19-2.042,0.571
		c-0.564,0.381-1.046,0.879-1.444,1.494s-0.792,1.484-1.182,2.607c-0.389,1.123-0.666,2.065-0.831,2.827s-0.268,1.489-0.306,2.183
		c-0.039,0.693-0.059,1.274-0.059,1.743c0,0.703,0.063,1.436,0.189,2.197s0.379,1.46,0.758,2.095s0.87,1.162,1.474,1.582
		c0.603,0.42,1.38,0.63,2.333,0.63c0.938,0,1.973-0.288,3.105-0.864s2.271-1.304,3.413-2.183s2.231-1.846,3.267-2.9
		s1.924-2.051,2.666-2.988l2.021,3.398c-1.465,2.09-3.047,3.955-4.746,5.596c-0.723,0.703-1.509,1.387-2.358,2.051
		s-1.738,1.255-2.666,1.772s-1.895,0.938-2.9,1.26S1243.064,713.966,1242.033,713.966z"/>
	<path fill="#2E161A" d="M1264.827,713.966c-1.823,0-3.42-0.338-4.787-1.014c-1.368-0.676-2.508-1.586-3.42-2.729
		c-0.911-1.143-1.596-2.465-2.052-3.966s-0.684-3.077-0.684-4.728c0-1.079,0.204-2.365,0.612-3.859
		c0.407-1.494,0.83-2.819,1.268-3.977c0.437-1.156,0.985-2.26,1.646-3.311c0.661-1.05,1.434-1.976,2.317-2.775
		c0.884-0.801,1.874-1.437,2.972-1.908c1.098-0.473,2.317-0.709,3.657-0.709c1.095,0,2.111,0.176,3.05,0.527
		c0.938,0.351,1.756,0.843,2.449,1.478c0.694,0.634,1.237,1.399,1.628,2.297s0.587,1.901,0.587,3.014
		c0,1.184-0.396,2.512-1.189,3.981c-0.793,1.471-1.718,2.731-2.774,3.781c-1.057,1.051-2.314,1.986-3.772,2.808
		s-3.038,1.461-4.741,1.919c0.294,0.517,0.583,0.946,0.867,1.29s0.573,0.611,0.867,0.802c0.294,0.191,0.604,0.325,0.927,0.401
		s0.671,0.114,1.044,0.114c1.172,0,2.407-0.229,3.706-0.688c1.299-0.458,2.563-1.031,3.794-1.719s2.393-1.438,3.486-2.249
		s2.021-1.58,2.783-2.306l3.779,3.839c-1.719,1.83-3.545,3.449-5.479,4.857c-0.84,0.604-1.743,1.197-2.71,1.78
		s-1.982,1.102-3.047,1.554s-2.168,0.814-3.311,1.086S1266,713.966,1264.827,713.966z M1260.916,700.013
		c0.706,0,1.476-0.177,2.309-0.53s1.607-0.807,2.323-1.36c0.715-0.555,1.416-1.299,2.103-2.234c0.686-0.936,1.029-1.71,1.029-2.32
		c0-0.859-0.162-1.566-0.485-2.12s-0.721-0.831-1.191-0.831c-0.843,0-1.563,0.153-2.161,0.459s-1.098,0.701-1.5,1.188
		c-0.401,0.487-0.726,1.04-0.97,1.661c-0.246,0.621-0.53,1.39-0.854,2.307c-0.323,0.916-0.505,1.671-0.544,2.263
		S1260.916,699.592,1260.916,700.013z"/>
	<path fill="#2E161A" d="M1283.593,713.966c-1.051,0-2.028-0.456-2.933-1.369c-0.905-0.914-1.693-2.139-2.364-3.678
		c-0.672-1.537-1.197-3.32-1.576-5.349c-0.38-2.028-0.569-4.157-0.569-6.388c0-1.916,0.281-4.475,0.845-7.675s0.845-4.801,0.845-4.8
		c0,0,0.427-1.598,1.28-4.794c0.854-3.197,1.709-5.761,2.567-7.691c0.857-1.931,1.789-3.734,2.796-5.411
		c1.006-1.678,2.061-3.14,3.166-4.387c1.104-1.245,2.259-2.226,3.462-2.938s2.427-1.068,3.67-1.068c0.904,0,1.65,0.173,2.239,0.518
		c0.589,0.346,1.052,0.801,1.389,1.367c0.337,0.567,0.573,1.208,0.71,1.925s0.205,1.447,0.205,2.19c0,1.847-0.219,3.728-0.655,5.643
		c-0.437,1.914-1.025,3.839-1.767,5.773s-1.6,3.874-2.573,5.818c-0.976,1.945-1.991,3.874-3.047,5.789s-2.116,3.801-3.183,5.656
		c-1.066,1.856-2.05,3.671-2.951,5.443c-0.099,0.197-0.201,0.453-0.309,0.768c-0.108,0.315-0.211,0.655-0.309,1.02
		c-0.098,0.365-0.196,0.754-0.294,1.167c-0.098,0.414-0.177,0.817-0.235,1.212v0.413c0,0.513,0.054,1.01,0.161,1.492
		c0.108,0.482,0.24,0.916,0.397,1.3c0.156,0.385,0.323,0.69,0.499,0.916c0.177,0.227,0.343,0.34,0.5,0.34
		c0.38,0,0.815-0.079,1.305-0.236c0.49-0.157,1.01-0.369,1.561-0.635c0.55-0.266,1.114-0.571,1.694-0.916s1.141-0.694,1.681-1.049
		c1.26-0.827,2.579-1.782,3.959-2.866l2.587,6.176c-1.79,1.188-3.56,2.247-5.31,3.175c-0.765,0.391-1.554,0.775-2.368,1.156
		s-1.635,0.72-2.459,1.018c-0.825,0.297-1.629,0.534-2.413,0.71C1285.011,713.878,1284.277,713.966,1283.593,713.966z
		 M1283.621,690.742c0.882-1.576,1.816-3.349,2.807-5.318c0.989-1.969,1.925-3.998,2.807-6.086s1.646-4.17,2.293-6.249
		c0.646-2.077,1.058-4.013,1.234-5.805c0-0.571-0.015-1.059-0.042-1.463c-0.027-0.403-0.115-0.605-0.264-0.605
		c-0.536,0-1.115,0.371-1.735,1.113c-0.619,0.741-1.24,1.746-1.859,3.012c-0.62,1.267-1.36,3.326-2.222,6.179
		c-0.86,2.853-1.291,4.279-1.291,4.28s-0.263,1.324-0.789,3.971C1284.034,686.418,1283.722,688.741,1283.621,690.742z"/>
	<path fill="#2E161A" d="M1304.305,714.464l0.645-3.542c-1.055,0.928-2.153,1.677-3.296,2.247s-2.251,0.855-3.325,0.855
		c-0.938,0-1.851-0.19-2.739-0.571s-1.675-0.928-2.358-1.641s-1.23-1.582-1.641-2.607s-0.615-2.183-0.615-3.472
		c0-1.699,0.117-3.257,0.352-4.673c0.233-1.415,0.522-3.163,0.865-5.243c0.344-2.08,0.749-3.722,1.218-4.923
		s1.006-2.417,1.611-3.647c0.448-0.879,1.093-1.548,1.933-2.007s1.659-0.688,2.46-0.688c0.683,0,1.269,0.171,1.757,0.513
		c0.488,0.343,0.732,0.875,0.732,1.598c0,0.216-0.024,0.45-0.072,0.704s-0.129,0.527-0.244,0.82
		c-0.345,0.898-0.636,1.968-0.873,3.206s-0.554,2.89-0.949,4.953s-0.709,3.7-0.941,4.91c-0.231,1.209-0.348,2.288-0.348,3.235
		c0,0.493,0.034,0.972,0.103,1.436c0.068,0.465,0.19,0.879,0.366,1.244s0.41,0.661,0.703,0.888c0.293,0.228,0.664,0.341,1.113,0.341
		c0.723,0,1.377-0.314,1.963-0.944c0.586-0.629,1.094-1.386,1.523-2.271s0.776-1.8,1.04-2.744c0.264-0.943,0.435-1.73,0.513-2.36
		l2.348-10.957c0.137-0.645,0.41-1.23,0.821-1.758c0.391-0.508,0.852-0.942,1.38-1.304c0.527-0.361,1.075-0.63,1.643-0.806
		s1.105-0.264,1.614-0.264c0.606,0,1.115,0.132,1.525,0.396c0.411,0.265,0.616,0.681,0.616,1.247c0,0.176-0.029,0.382-0.088,0.616
		c-0.091,0.52-0.213,1.218-0.366,2.094c-0.153,0.877-0.328,1.873-0.522,2.99c-0.195,1.116-0.468,2.684-0.818,4.698
		c-0.351,2.016-0.635,3.637-0.854,4.863c-0.495,2.9-1,6.015-1.514,9.346c0.594-0.332,1.233-0.741,1.92-1.229
		c0.686-0.488,1.449-1.142,2.289-1.961c0.839-0.819,1.776-1.849,2.812-3.088c1.035-1.239,2.197-2.786,3.486-4.641l1.406,6.521
		c-0.352,0.602-0.802,1.213-1.348,1.833c-0.586,0.66-1.212,1.3-1.875,1.921c-0.978,0.893-1.681,1.494-2.109,1.804
		c-0.137,0.098-0.85,0.658-2.139,1.683c-0.392,0.332-1.684,1.23-3.879,2.694c-0.535,0.352-0.9,0.991-1.099,1.919
		c-0.197,0.927-0.425,2.65-0.683,5.169c-0.112,0.719-0.182,1.271-0.21,1.66c-0.119,0.933-0.231,1.821-0.338,2.667
		c-0.107,0.845-0.297,1.81-0.57,2.894c-0.272,1.084-0.594,2.081-0.965,2.99c-0.37,0.908-0.857,1.812-1.462,2.711
		c-0.604,0.898-1.272,1.665-2.003,2.301c-0.73,0.634-1.613,1.146-2.646,1.538c-1.033,0.391-2.164,0.586-3.392,0.586
		c-0.995,0-1.916-0.112-2.764-0.337c-0.848-0.224-1.623-0.57-2.324-1.038c-0.702-0.469-1.276-1.107-1.725-1.917
		c-0.449-0.81-0.712-1.762-0.79-2.854c-0.156-2.068,0.41-4.254,1.699-6.556c0.723-1.288,1.23-2.181,1.523-2.678
		c0.293-0.498,0.752-1.215,1.377-2.151c0.625-0.917,1.279-1.746,1.963-2.487c1.367-1.542,2.495-2.78,3.384-3.717
		S1303.074,715.536,1304.305,714.464z M1304.408,721.526c-1.37,0.977-2.721,2.539-4.051,4.687c-1.331,2.148-2.388,4.335-3.17,6.562
		c-0.646,1.875-0.324,2.812,0.965,2.812c0.469,0,0.889-0.059,1.26-0.176s0.713-0.327,1.025-0.63s0.586-0.635,0.82-0.996
		s0.483-0.869,0.747-1.523s0.498-1.299,0.703-1.934s0.464-1.479,0.776-2.534c0.176-0.566,0.307-1.197,0.392-1.893
		s0.187-1.531,0.305-2.506C1304.299,722.419,1304.375,721.796,1304.408,721.526z"/>
	<path fill="#2E161A" d="M1335.477,715.069c0-0.098,0.024-0.692,0.073-1.782s0.154-2.542,0.317-4.354s0.352-3.906,0.565-6.283
		s0.516-4.883,0.904-7.518s0.848-5.338,1.377-8.108c0.527-2.771,1.156-5.469,1.884-8.095c0.729-2.625,1.562-5.1,2.499-7.423
		s1.989-4.355,3.156-6.096s2.468-3.116,3.904-4.128c1.437-1.011,3.012-1.517,4.728-1.517c0.662,0,1.359,0.114,2.09,0.343
		s1.398,0.599,2.003,1.112c0.604,0.514,1.105,1.194,1.505,2.04c0.399,0.847,0.6,1.888,0.6,3.124c0,1.15-0.187,2.471-0.558,3.963
		c-0.372,1.491-0.895,3.085-1.568,4.781c-0.673,1.695-1.467,3.46-2.382,5.292c-0.914,1.833-1.914,3.66-3,5.483
		c-1.085,1.822-2.226,3.616-3.421,5.38c-1.196,1.765-2.417,3.417-3.663,4.957l-0.059,0.468c0.411-0.171,0.72-0.282,0.926-0.333
		c0.205-0.052,0.422-0.077,0.648-0.077c0.271,0,0.491,0.021,0.659,0.064c0.167,0.043,0.318,0.09,0.455,0.141
		c0.136,0.051,0.277,0.099,0.424,0.141c0.146,0.043,0.324,0.064,0.534,0.064c1.934,0,3.643-0.229,5.127-0.688
		c1.483-0.457,2.734-0.969,3.75-1.535c1.19-0.643,2.227-1.394,3.105-2.252l-0.645,7.14c-1.289,0.71-2.637,1.263-4.043,1.657
		s-2.706,0.691-3.896,0.889c-1.388,0.217-2.781,0.355-4.184,0.414c0.753,1.287,1.434,2.622,2.041,4.006
		c0.523,1.188,0.999,2.52,1.429,3.991c0.429,1.472,0.644,2.958,0.644,4.459c0,0.175-0.026,0.545-0.079,1.11
		c-0.052,0.565-0.14,1.258-0.262,2.076c-0.123,0.818-0.297,1.725-0.521,2.719c-0.226,0.994-0.517,1.998-0.874,3.012
		c-0.358,1.014-0.793,1.993-1.304,2.938c-0.512,0.945-1.11,1.783-1.795,2.515c-0.685,0.73-1.472,1.32-2.361,1.769
		s-1.897,0.673-3.021,0.673c-1.067,0-1.999-0.243-2.794-0.73c-0.796-0.487-1.475-1.145-2.037-1.972
		c-0.563-0.828-1.034-1.792-1.412-2.892c-0.378-1.101-0.674-2.265-0.888-3.491c-0.213-1.227-0.363-2.479-0.45-3.753
		C1335.521,717.489,1335.477,716.257,1335.477,715.069z M1343.226,699.67c-0.079,0-0.168,0.224-0.267,0.67
		c-0.1,0.446-0.176,1.007-0.229,1.682s-0.131,1.636-0.229,2.882c-0.101,1.247-0.183,2.269-0.247,3.064
		c-0.064,0.797-0.116,1.552-0.155,2.265s-0.059,1.274-0.059,1.685c0,2.871,0.054,5.156,0.162,6.855s0.245,2.988,0.412,3.867
		s0.354,1.45,0.561,1.714s0.418,0.396,0.634,0.396c0.668,0,1.204-0.303,1.606-0.908c0.403-0.605,0.707-1.372,0.914-2.3
		c0.206-0.928,0.344-1.943,0.412-3.047s0.104-2.163,0.104-3.179c0-0.684-0.021-1.523-0.06-2.52s-0.099-2.071-0.178-3.226
		c-0.079-1.155-0.242-2.46-0.489-3.917s-0.593-2.551-1.038-3.284s-0.806-1.366-1.083-1.899
		C1343.72,699.938,1343.463,699.67,1343.226,699.67z M1350.64,669.047c-1.15,2.593-2.095,5.06-2.834,7.398
		c-0.678,2.145-1.187,4.045-1.525,5.702s-0.58,3.114-0.725,4.372c-0.144,1.257-0.284,2.422-0.422,3.494
		c1.253-2.242,2.547-4.426,3.883-6.551c1.335-2.125,2.504-4.118,3.506-5.979s1.859-3.66,2.57-5.396
		c0.712-1.734,1.067-2.973,1.067-3.714c0-1.033-0.146-1.788-0.435-2.266c-0.29-0.478-0.773-0.717-1.449-0.717
		c-1.068,0-1.787,0.234-2.157,0.702C1351.832,666.483,1351.339,667.468,1350.64,669.047z"/>
	<path fill="#2E161A" d="M1359.324,707.843c0-0.859,0.049-1.86,0.146-3.003s0.229-2.349,0.396-3.618s0.361-2.563,0.586-3.882
		s0.513-2.725,0.864-4.219s0.654-2.739,0.908-3.735s0.508-1.816,0.762-2.461c0.156-0.43,0.312-0.771,0.469-1.025
		s0.337-0.454,0.542-0.601s0.459-0.244,0.762-0.293s0.679-0.073,1.128-0.073c0.508,0,0.903,0.024,1.187,0.073
		s0.493,0.166,0.63,0.352s0.22,0.454,0.249,0.806s0.044,0.83,0.044,1.436c0,0.723-0.049,1.748-0.146,3.076s-0.127,2.49-0.088,3.486
		h0.322c0.391-0.781,0.879-1.807,1.465-3.076s1.201-2.324,1.846-3.164s1.377-1.548,2.197-2.124s1.768-0.864,2.842-0.864
		c0.371,0,0.732,0.063,1.084,0.19s0.659,0.308,0.923,0.542s0.474,0.522,0.63,0.864s0.234,0.728,0.234,1.157
		c0,0.332-0.049,0.796-0.146,1.392s-0.254,1.372-0.469,2.329s-0.371,1.743-0.469,2.358s-0.146,1.128-0.146,1.538
		c0,0.703,0.068,1.289,0.205,1.758s0.317,0.845,0.542,1.128s0.479,0.483,0.762,0.601s0.581,0.176,0.894,0.176
		c0.879,0,1.787-0.195,2.725-0.586s1.797-0.83,2.578-1.318c0.918-0.566,1.816-1.211,2.695-1.934l-0.439,6.855
		c-0.508,0.332-1.084,0.703-1.729,1.113s-1.333,0.796-2.065,1.157s-1.494,0.664-2.285,0.908s-1.597,0.366-2.417,0.366
		c-1.465,0-2.646-0.298-3.545-0.894s-1.611-1.377-2.139-2.344s-0.918-2.051-1.172-3.252s-0.459-2.417-0.615-3.647h-0.469
		l-5.244,14.619c-0.273,0.762-0.532,1.392-0.776,1.89s-0.493,0.903-0.747,1.216s-0.527,0.532-0.82,0.659s-0.615,0.19-0.967,0.19
		c-0.801,0-1.445-0.171-1.934-0.513s-0.864-0.801-1.128-1.377s-0.439-1.23-0.527-1.963S1359.324,708.624,1359.324,707.843z"/>
	<path fill="#2E161A" d="M1415.337,706.706c-0.449,0.632-1.05,1.372-1.802,2.222s-1.597,1.659-2.534,2.43s-1.943,1.422-3.018,1.955
		s-2.148,0.8-3.223,0.8c-1.297,0-2.379-0.41-3.245-1.232c-0.867-0.821-1.615-2.016-2.245-3.581
		c-0.473,0.541-1.054,1.092-1.742,1.652c-0.689,0.561-1.442,1.068-2.259,1.522c-0.817,0.454-1.669,0.826-2.555,1.116
		c-0.887,0.29-1.772,0.435-2.658,0.435c-0.938,0-1.851-0.191-2.739-0.576c-0.889-0.384-1.675-0.936-2.358-1.655
		c-0.684-0.719-1.23-1.596-1.641-2.631c-0.41-1.034-0.615-2.201-0.615-3.502c0-1.459,0.206-2.958,0.619-4.496
		c0.412-1.537,1.051-3.201,1.915-4.991c0.864-1.791,1.793-3.338,2.785-4.643c0.992-1.304,2.078-2.442,3.257-3.415
		c1.179-0.974,2.422-1.747,3.729-2.321c1.306-0.574,2.637-0.861,3.993-0.861c0.452,0,0.806,0.089,1.061,0.267
		c0.256,0.178,0.467,0.38,0.634,0.606c0.167,0.228,0.329,0.449,0.486,0.666c0.157,0.218,0.354,0.375,0.59,0.475
		c0.235,0.099,0.476,0.162,0.722,0.191c0.245,0.03,0.496,0.045,0.752,0.045c0.216,0,0.437-0.005,0.662-0.015
		c0.227-0.01,0.447-0.016,0.664-0.016c0.295,0,0.569,0.03,0.825,0.089c0.255,0.06,0.48,0.188,0.677,0.386s0.348,0.474,0.455,0.829
		c0.107,0.354,0.161,0.839,0.161,1.45c0,0.934-0.098,1.97-0.293,3.107s-0.419,2.305-0.671,3.498
		c-0.252,1.194-0.54,2.556-0.862,4.084s-0.483,2.816-0.483,3.863c0,0.896,0.083,1.596,0.249,2.1
		c0.166,0.505,0.522,0.757,1.069,0.757c0.41,0,0.84-0.102,1.289-0.305s0.903-0.47,1.362-0.799s0.918-0.701,1.377-1.118
		c0.459-0.416,0.894-0.847,1.304-1.293c0.957-1.045,1.924-2.227,2.9-3.543L1415.337,706.706z M1390.203,704.411
		c0,0.503,0.034,0.992,0.103,1.466c0.068,0.473,0.19,0.896,0.367,1.269c0.176,0.373,0.41,0.675,0.704,0.906
		c0.293,0.231,0.665,0.348,1.115,0.348c0.724,0,1.379-0.314,1.966-0.944c0.587-0.629,1.096-1.386,1.526-2.271
		c0.43-0.885,0.777-1.799,1.042-2.743c0.264-0.943,0.435-1.73,0.514-2.359l2.185-9.524c-0.801,0-1.582,0.198-2.344,0.596
		c-0.762,0.396-1.479,0.935-2.153,1.611c-0.674,0.678-1.294,1.452-1.86,2.323c-0.566,0.872-1.123,1.946-1.67,3.225
		c-0.547,1.277-0.933,2.4-1.157,3.368C1390.315,702.649,1390.203,703.559,1390.203,704.411z"/>
	<path fill="#2E161A" d="M1425.184,708.648c0-0.256,0.02-0.618,0.059-1.089s0.098-1.011,0.176-1.618
		c0.078-0.608,0.166-1.251,0.264-1.928c0.098-0.676,0.195-1.349,0.293-2.016c0.215-1.568,0.479-3.256,0.791-5.061h-0.439
		c-0.234,0.295-0.503,0.737-0.806,1.327s-0.728,1.454-1.274,2.594s-1.245,2.619-2.095,4.437c-0.85,1.818-1.948,4.045-3.296,6.68
		c-0.391,0.777-0.845,1.304-1.362,1.579c-0.518,0.274-1.089,0.412-1.714,0.412c-0.801,0-1.445-0.166-1.934-0.498
		c-0.488-0.331-0.864-0.776-1.128-1.336s-0.439-1.194-0.527-1.905s-0.132-1.446-0.132-2.204c0-0.806,0.049-1.76,0.146-2.86
		c0.098-1.102,0.225-2.262,0.381-3.48s0.386-2.61,0.688-4.173c0.303-1.563,0.566-2.927,0.791-4.09
		c0.225-1.162,0.454-2.228,0.688-3.193s0.449-1.755,0.645-2.365c0.195-0.631,0.381-1.134,0.557-1.509
		c0.176-0.374,0.376-0.665,0.601-0.872s0.493-0.345,0.806-0.414c0.312-0.068,0.713-0.104,1.201-0.104
		c0.742,0,1.323,0.024,1.743,0.074s0.732,0.168,0.938,0.354c0.205,0.188,0.327,0.458,0.366,0.813
		c0.039,0.354,0.059,0.838,0.059,1.448c0,0.335-0.015,0.72-0.044,1.154c-0.029,0.434-0.073,0.896-0.132,1.39
		c-0.039,0.493-0.098,0.995-0.176,1.508c-0.137,0.985-0.215,1.498-0.234,1.537c-0.273,1.341-0.557,2.839-0.85,4.495l0.322,0.354
		c0.039-0.059,0.298-0.581,0.776-1.566c0.479-0.986,0.996-1.962,1.553-2.928s1.157-1.977,1.802-3.031s1.26-1.985,1.846-2.794
		c0.566-0.809,1.167-1.479,1.802-2.011s1.392-0.799,2.271-0.799c0.82,0,1.523,0.242,2.109,0.725
		c0.586,0.483,0.879,1.168,0.879,2.055c0,0.77-0.049,1.498-0.146,2.188c-0.117,0.887-0.234,1.558-0.352,2.011
		c-0.137,0.513-0.293,1.144-0.469,1.893c-0.137,0.65-0.381,1.587-0.732,2.81c-0.059,0.197-0.117,0.482-0.176,0.857
		c-0.02,0.118-0.029,0.197-0.029,0.236l0.322,0.354c0.039-0.059,0.312-0.576,0.82-1.552c0.508-0.977,1.06-1.947,1.655-2.913
		s1.23-1.98,1.904-3.046c0.674-1.064,1.304-2,1.89-2.809c0.566-0.788,1.133-1.454,1.699-1.996s1.26-0.813,2.08-0.813
		c0.918,0,1.694,0.242,2.329,0.725c0.635,0.483,0.952,1.168,0.952,2.055c0,1.36-0.068,2.651-0.205,3.874
		c-0.137,1.222-0.342,2.572-0.615,4.051s-0.479,2.824-0.615,4.037c-0.137,1.212-0.205,2.498-0.205,3.858
		c0,1.064,0.137,1.932,0.41,2.603c0.273,0.67,0.605,1.005,0.996,1.005c0.41,0,0.84-0.088,1.289-0.266s0.908-0.404,1.377-0.681
		c0.469-0.275,0.928-0.596,1.377-0.961c0.449-0.364,0.879-0.744,1.289-1.139c0.957-0.906,1.904-1.932,2.842-3.075l0.498,6.946
		c-0.859,0.663-1.714,1.351-2.563,2.062s-1.748,1.355-2.695,1.934s-1.987,1.053-3.12,1.422c-1.133,0.37-2.412,0.555-3.838,0.555
		c-0.703,0-1.294-0.225-1.772-0.674c-0.479-0.45-0.864-1.076-1.157-1.881c-0.293-0.804-0.503-1.751-0.63-2.842
		s-0.19-2.277-0.19-3.56c0-1.241,0.044-2.558,0.132-3.947s0.21-2.794,0.366-4.214h-0.439l-5.947,15.051
		c-0.508,0.814-1.074,1.363-1.699,1.645s-1.348,0.422-2.168,0.422c-0.625,0-1.123-0.166-1.494-0.498
		c-0.371-0.331-0.659-0.758-0.864-1.279s-0.342-1.095-0.41-1.721C1425.218,709.843,1425.184,709.235,1425.184,708.648z"/>
	<path fill="#2E161A" d="M1460.706,713.966c-1.823,0-3.42-0.338-4.787-1.014c-1.368-0.676-2.508-1.586-3.42-2.729
		c-0.911-1.143-1.596-2.465-2.052-3.966s-0.684-3.077-0.684-4.728c0-1.079,0.204-2.365,0.612-3.859
		c0.407-1.494,0.83-2.819,1.268-3.977c0.437-1.156,0.985-2.26,1.646-3.311c0.661-1.05,1.434-1.976,2.317-2.775
		c0.884-0.801,1.874-1.437,2.972-1.908c1.098-0.473,2.317-0.709,3.657-0.709c1.095,0,2.111,0.176,3.05,0.527
		c0.938,0.351,1.756,0.843,2.449,1.478c0.694,0.634,1.237,1.399,1.628,2.297s0.587,1.901,0.587,3.014
		c0,1.184-0.396,2.512-1.189,3.981c-0.793,1.471-1.718,2.731-2.774,3.781c-1.057,1.051-2.314,1.986-3.772,2.808
		s-3.038,1.461-4.741,1.919c0.294,0.517,0.583,0.946,0.867,1.29s0.573,0.611,0.867,0.802c0.294,0.191,0.604,0.325,0.927,0.401
		s0.671,0.114,1.044,0.114c1.172,0,2.407-0.229,3.706-0.688c1.299-0.458,2.563-1.031,3.794-1.719s2.393-1.438,3.486-2.249
		s2.021-1.58,2.783-2.306l3.779,3.839c-1.719,1.83-3.545,3.449-5.479,4.857c-0.84,0.604-1.743,1.197-2.71,1.78
		s-1.982,1.102-3.047,1.554s-2.168,0.814-3.311,1.086S1461.879,713.966,1460.706,713.966z M1456.795,700.013
		c0.706,0,1.476-0.177,2.309-0.53s1.607-0.807,2.323-1.36c0.715-0.555,1.416-1.299,2.103-2.234c0.686-0.936,1.029-1.71,1.029-2.32
		c0-0.859-0.162-1.566-0.485-2.12s-0.721-0.831-1.191-0.831c-0.843,0-1.563,0.153-2.161,0.459s-1.098,0.701-1.5,1.188
		c-0.401,0.487-0.726,1.04-0.97,1.661c-0.246,0.621-0.53,1.39-0.854,2.307c-0.323,0.916-0.505,1.671-0.544,2.263
		S1456.795,699.592,1456.795,700.013z"/>
	<path fill="#2E161A" d="M1485.532,699.493c-0.564,2.129-1.23,4.077-1.998,5.845c-0.769,1.768-1.59,3.291-2.465,4.57
		s-1.779,2.275-2.712,2.988c-0.934,0.713-1.847,1.069-2.741,1.069c-1.478,0-2.562-1.123-3.253-3.369s-1.037-5.566-1.037-9.961
		c0-2.176,0-4.096,0-5.762s0.01-3.332,0.029-4.998c0.02-1.665,0.019-2.2-0.003-1.605c-0.021,0.596-0.041,1.145-0.059,1.648
		c-0.005,0.123-0.012,0.335-0.022,0.636s0.063,0.151,0.222-0.446s0.37-1.22,0.634-1.866c0.265-0.646,0.603-1.234,1.015-1.765
		s0.897-0.97,1.458-1.317c0.561-0.347,1.231-0.521,2.014-0.521l0.761,0.059c0.929,0,1.643,0.169,2.139,0.508
		c0.497,0.339,0.745,0.789,0.745,1.351l-2.369,17.038l0.382-0.024c0.863-1.993,1.661-4.011,2.396-6.053
		c0.734-2.042,1.371-3.718,1.909-5.026s1.057-2.451,1.556-3.428s1.042-1.787,1.629-2.432s1.247-1.128,1.981-1.45
		c0.733-0.322,1.609-0.483,2.627-0.483c0.859,0,1.519,0.171,1.978,0.513s0.688,0.796,0.688,1.362l-2.725,17.021l0.439-0.024
		l7.295-16.821c0.234-0.546,0.742-1.029,1.523-1.45c0.781-0.42,1.709-0.63,2.783-0.63c1.113,0,2.012,0.229,2.695,0.688
		s1.025,1.05,1.025,1.772c0,0.547-0.093,1.133-0.278,1.758s-0.386,1.206-0.601,1.743s-0.42,0.996-0.615,1.377
		s-0.303,0.591-0.322,0.63c-0.43,0.781-0.874,1.699-1.333,2.754s-0.825,1.836-1.099,2.344c-0.332,0.586-0.625,1.133-0.879,1.641
		c0.273,0.762,0.625,1.445,1.055,2.051c0.371,0.508,0.83,0.977,1.377,1.406s1.201,0.645,1.963,0.645
		c0.645,0,1.387-0.171,2.227-0.513s1.631-0.728,2.373-1.157c0.879-0.488,1.777-1.045,2.695-1.67v7.068
		c-1.289,0.862-2.622,1.551-3.999,2.064s-2.7,0.77-3.97,0.77c-0.996,0-1.938-0.123-2.827-0.369s-1.67-0.636-2.344-1.169
		c-0.674-0.534-1.211-1.227-1.611-2.078s-0.61-1.882-0.63-3.093c-0.664,1.562-1.357,2.993-2.08,4.292s-1.465,2.417-2.227,3.354
		s-1.533,1.67-2.314,2.197s-1.562,0.791-2.344,0.791c-0.273,0-0.513-0.21-0.718-0.63s-0.376-0.986-0.513-1.699
		s-0.249-1.543-0.337-2.49s-0.156-1.948-0.205-3.003s-0.083-2.139-0.103-3.252s-0.029-2.197-0.029-3.252L1485.532,699.493z"/>
	<path fill="#2E161A" d="M1528.836,691.378c0.566,1.133,0.991,2.329,1.274,3.589s0.425,2.681,0.425,4.263
		c0,1.152-0.127,2.314-0.381,3.486s-0.62,2.305-1.099,3.398s-1.064,2.119-1.758,3.076s-1.484,1.787-2.373,2.49
		s-1.86,1.26-2.915,1.67s-2.178,0.615-3.369,0.615c-1.719,0-3.188-0.376-4.409-1.128s-2.222-1.733-3.003-2.944
		s-1.353-2.578-1.714-4.102s-0.542-3.066-0.542-4.629c0-2.578,0.322-4.8,0.967-6.665s1.567-3.486,2.769-4.863
		s2.671-2.461,4.409-3.252s3.691-1.187,5.859-1.187c1.855,0,3.594,0.288,5.215,0.864s3.14,1.348,4.556,2.314
		s2.734,2.183,3.955,3.647s2.358,2.861,3.413,4.189l-0.557,4.131c-0.527-0.703-1.24-1.465-2.139-2.285s-1.851-1.729-2.856-2.725
		s-1.997-1.841-2.974-2.534s-1.816-1.274-2.52-1.743L1528.836,691.378z M1519.783,708.341c0.664,0,1.309-0.337,1.934-1.011
		s1.172-1.523,1.641-2.549s0.845-2.266,1.128-3.721s0.425-2.749,0.425-3.882c0-0.898-0.068-1.733-0.205-2.505
		s-0.342-1.44-0.615-2.007s-0.625-1.016-1.055-1.348s-0.947-0.498-1.553-0.498c-0.801,0-1.562,0.342-2.285,1.025
		s-1.357,1.558-1.904,2.622s-0.977,2.241-1.289,3.53s-0.469,2.744-0.469,4.365c0,0.82,0.078,1.592,0.234,2.314s0.4,1.353,0.732,1.89
		s0.771,0.967,1.318,1.289S1519.021,708.341,1519.783,708.341z"/>
	<path fill="#2E161A" d="M1536.102,707.843c0-0.859,0.049-1.86,0.146-3.003s0.229-2.349,0.396-3.618s0.361-2.563,0.586-3.882
		s0.513-2.725,0.864-4.219s0.654-2.739,0.908-3.735s0.508-1.816,0.762-2.461c0.156-0.43,0.312-0.771,0.469-1.025
		s0.337-0.454,0.542-0.601s0.459-0.244,0.762-0.293s0.679-0.073,1.128-0.073c0.508,0,0.903,0.024,1.187,0.073
		s0.493,0.166,0.63,0.352s0.22,0.454,0.249,0.806s0.044,0.83,0.044,1.436c0,0.723-0.049,1.748-0.146,3.076s-0.127,2.49-0.088,3.486
		h0.322c0.391-0.781,0.879-1.807,1.465-3.076s1.201-2.324,1.846-3.164s1.377-1.548,2.197-2.124s1.768-0.864,2.842-0.864
		c0.371,0,0.732,0.063,1.084,0.19s0.659,0.308,0.923,0.542s0.474,0.522,0.63,0.864s0.234,0.728,0.234,1.157
		c0,0.332-0.049,0.796-0.146,1.392s-0.254,1.372-0.469,2.329s-0.371,1.743-0.469,2.358s-0.146,1.128-0.146,1.538
		c0,0.703,0.068,1.289,0.205,1.758s0.317,0.845,0.542,1.128s0.479,0.483,0.762,0.601s0.581,0.176,0.894,0.176
		c0.879,0,1.787-0.195,2.725-0.586s1.797-0.83,2.578-1.318c0.918-0.566,1.816-1.211,2.695-1.934l-0.439,6.855
		c-0.508,0.332-1.084,0.703-1.729,1.113s-1.333,0.796-2.065,1.157s-1.494,0.664-2.285,0.908s-1.597,0.366-2.417,0.366
		c-1.465,0-2.646-0.298-3.545-0.894s-1.611-1.377-2.139-2.344s-0.918-2.051-1.172-3.252s-0.459-2.417-0.615-3.647h-0.469
		l-5.244,14.619c-0.273,0.762-0.532,1.392-0.776,1.89s-0.493,0.903-0.747,1.216s-0.527,0.532-0.82,0.659s-0.615,0.19-0.967,0.19
		c-0.801,0-1.445-0.171-1.934-0.513s-0.864-0.801-1.128-1.377s-0.439-1.23-0.527-1.963S1536.102,708.624,1536.102,707.843z"/>
	<path fill="#2E161A" d="M1570.76,697.814c0.703-0.914,1.475-1.918,2.314-3.012c0.84-1.093,1.665-2.137,2.476-3.131
		s1.626-2.028,2.446-3.102s1.426-1.749,1.816-2.027c0.605-0.438,1.348-0.811,2.227-1.119c0.879-0.308,1.855-0.462,2.93-0.462
		c0.547,0,1.069,0.13,1.567,0.388c0.498,0.259,0.933,0.627,1.304,1.104c0.371,0.478,0.664,1.054,0.879,1.729
		s0.322,1.431,0.322,2.266c0,0.815-0.269,1.785-0.806,2.908s-1.099,2.102-1.685,2.937s-1.221,1.67-1.904,2.505
		s-1.318,1.676-1.904,2.521s-1.074,1.685-1.465,2.52s-0.586,1.67-0.586,2.505c0,0.716,0.171,1.229,0.513,1.536
		s0.874,0.462,1.597,0.462c0.391,0,0.815-0.134,1.274-0.402s0.933-0.621,1.421-1.059s0.981-0.925,1.479-1.461
		c0.498-0.537,0.977-1.084,1.436-1.641s0.894-1.088,1.304-1.596c0.41-0.507,0.781-0.939,1.113-1.297l1.758,7.306
		c-0.605,0.821-1.372,1.583-2.3,2.285s-1.934,1.313-3.018,1.834c-1.084,0.52-2.207,0.926-3.369,1.218s-2.28,0.438-3.354,0.438
		c-1.406,0-2.554-0.159-3.442-0.478c-0.889-0.319-1.587-0.742-2.095-1.27c-0.508-0.528-0.854-1.124-1.04-1.789
		c-0.186-0.664-0.278-1.352-0.278-2.062c0-0.457,0.054-1.019,0.161-1.685c0.107-0.665,0.312-1.416,0.615-2.251
		c0.303-0.834,0.728-1.754,1.274-2.757c0.547-1.004,1.26-2.082,2.139-3.235c0.352-0.357,0.674-0.681,0.967-0.969
		s0.547-0.547,0.762-0.775s0.381-0.442,0.498-0.641c0.117-0.199,0.176-0.408,0.176-0.627c0-0.418-0.073-0.755-0.22-1.014
		s-0.356-0.388-0.63-0.388c-0.332,0-0.762,0.219-1.289,0.655c-0.547,0.458-1.123,1.224-1.729,2.297l-8.613,15.048
		c-0.469,0.71-0.938,1.211-1.406,1.502s-1.016,0.437-1.641,0.437c-0.84,0-1.504-0.17-1.992-0.51s-0.859-0.8-1.113-1.379
		c-0.254-0.578-0.415-1.249-0.483-2.012s-0.103-1.576-0.103-2.44c0-1.131,0.039-2.63,0.117-4.496
		c0.078-1.865,0.195-3.915,0.352-6.147c0.156-2.233,0.366-4.57,0.63-7.013c0.264-2.441,0.581-4.813,0.952-7.116
		c0.145-0.791,0.322-1.76,0.533-2.907s0.497-2.37,0.857-3.667s0.74-2.659,1.138-4.088s0.885-2.811,1.461-4.145
		c0.577-1.334,1.227-2.605,1.95-3.812c0.724-1.208,1.534-2.265,2.434-3.171c0.899-0.905,1.887-1.621,2.962-2.147
		c1.074-0.525,2.248-0.789,3.519-0.789c0.996,0,1.816,0.161,2.461,0.481c0.645,0.321,1.157,0.769,1.538,1.342
		s0.649,1.259,0.806,2.057c0.156,0.797,0.234,1.662,0.234,2.595c0,1.672-0.21,3.471-0.63,5.397s-0.952,3.859-1.597,5.795
		c-0.645,1.938-1.348,3.82-2.109,5.648s-1.494,3.479-2.197,4.954s-1.323,2.719-1.86,3.73c-0.537,1.013-0.894,1.677-1.069,1.991
		l-3.486,5.25L1570.76,697.814z M1576.493,664.688c-0.635,0-1.179,0.195-1.635,0.585s-0.887,0.944-1.294,1.664
		c-0.406,0.721-0.812,1.598-1.218,2.63c-0.407,1.032-0.867,2.182-1.382,3.447c-0.278,1.137-0.565,2.308-0.859,3.513
		s-0.53,2.396-0.71,3.576s-0.355,2.34-0.527,3.481c-0.174,1.143-0.335,2.212-0.485,3.209c-0.293,2.461-0.527,4.883-0.703,7.264
		c0.429-1.309,0.9-2.73,1.414-4.266c0.513-1.536,1.021-3.052,1.524-4.549c0.503-1.496,0.977-2.903,1.421-4.222
		s0.814-2.437,1.11-3.354c0.138-0.43,0.335-0.967,0.592-1.611s0.533-1.338,0.829-2.08c0.297-0.742,0.593-1.514,0.889-2.314
		s0.567-1.572,0.814-2.314c0.246-0.742,0.448-1.436,0.606-2.08s0.237-1.191,0.237-1.641
		C1577.117,665.001,1576.909,664.688,1576.493,664.688z"/>
</g>
</svg>
